name Run_400 05_newCOP3_v24.mot
datacolumns 19
datarows 41
range 2.970833 3.0125
DataType=double
version=3
OpenSimVersion=4.3-2021-08-27-4bc7ad9
endheader
time	R_ground_force_vx	R_ground_force_vy	R_ground_force_vz	R_ground_force_px	R_ground_force_py	R_ground_force_pz	L_ground_force_vx	L_ground_force_vy	L_ground_force_vz	L_ground_force_px	L_ground_force_py	L_ground_force_pz	R_ground_torque_x	R_ground_torque_y	R_ground_torque_z	L_ground_torque_x	L_ground_torque_y	L_ground_torque_z
2.970833	-12.005552	89.579201	-8.929309999999999	1.182228	0	-0.270938	0	0	0	0	0	0	-0	2.972225	-0	0	0	0
2.971875	-13.173627	101.675377	-9.610802	1.184545	0	-0.273113	0	0	0	0	0	0	-0	2.961066	-0	0	0	0
2.972917	-14.39745	115.154022	-10.259375	1.186395	0	-0.274954	0	0	0	0	0	0	-0	2.939089	-0	0	0	0
2.973958	-15.675811	130.097534	-10.865225	1.187862	0	-0.276504	0	0	0	0	0	0	-0	2.906065	-0	0	0	0
2.975	-17.008249	146.579529	-11.418343	1.189016	0	-0.277805	0	0	0	0	0	0	-0	2.861811	-0	0	0	0
2.976042	-18.395336	164.662048	-11.908627	1.189913	0	-0.278893	0	0	0	0	0	0	-0	2.806191	-0	0	0	0
2.977083	-19.838923	184.3927	-12.326018	1.190599	0	-0.279797	0	0	0	0	0	0	-0	2.739122	-0	0	0	0
2.978125	-21.342331	205.801788	-12.660641	1.19111	0	-0.280547	0	0	0	0	0	0	-0	2.660575	-0	0	0	0
2.979167	-22.910475	228.899506	-12.902946	1.191475	0	-0.281164	0	0	0	0	0	0	-0	2.570575	-0	0	0	0
2.980208	-24.549898	253.673416	-13.043871	1.191716	0	-0.28167	0	0	0	0	0	0	-0	2.469209	-0	0	0	0
2.98125	-26.268717	280.086243	-13.075013	1.19185	0	-0.282082	0	0	0	0	0	0	-0	2.356621	-0	0	0	0
2.982292	-28.076488	308.074066	-12.988791	1.191891	0	-0.282413	0	0	0	0	0	0	-0	2.233013	-0	0	0	0
2.983333	-29.983994	337.545197	-12.778624	1.191848	0	-0.282677	0	0	0	0	0	0	-0	2.098651	-0	0	0	0
2.984375	-32.002937	368.379578	-12.439104	1.19173	0	-0.282883	0	0	0	0	0	0	-0	1.953861	-0	0	0	0
2.985417	-34.145618	400.429047	-11.966176	1.191542	0	-0.28304	0	0	0	0	0	0	-0	1.799028	-0	0	0	0
2.986458	-36.424545	433.518402	-11.357294	1.19129	0	-0.283156	0	0	0	0	0	0	-0	1.634598	-0	0	0	0
2.9875	-38.852043	467.447205	-10.611585	1.190976	0	-0.283238	0	0	0	0	0	0	-0	1.461075	-0	0	0	0
2.988542	-41.439873	501.992523	-9.729981	1.190604	0	-0.283289	0	0	0	0	0	0	-0	1.279017	-0	0	0	0
2.989583	-44.198833	536.912476	-8.715350000000001	1.190176	0	-0.283316	0	0	0	0	0	0	-0	1.089038	-0	0	0	0
2.990625	-47.138405	571.950439	-7.572581	1.189693	0	-0.283322	0	0	0	0	0	0	-0	0.8918	-0	0	0	0
2.991667	-50.26643	606.840149	-6.308656	1.189158	0	-0.28331	0	0	0	0	0	0	-0	0.688015	-0	0	0	0
2.992708	-53.588799	641.310974	-4.932679	1.18857	0	-0.283284	0	0	0	0	0	0	-0	0.478434	-0	0	0	0
2.99375	-57.109196	675.093811	-3.455868	1.18793	0	-0.283247	0	0	0	0	0	0	-0	0.263852	-0	0	0	0
2.994792	-60.828838	707.927429	-1.891508	1.18724	0	-0.283202	0	0	0	0	0	0	-0	0.045094	-0	0	0	0
2.995833	-64.74630000000001	739.564148	-0.254855	1.1865	0	-0.283151	0	0	0	0	0	0	0	-0.176985	0	0	0	0
2.996875	-68.85734600000001	769.776306	1.437008	1.185709	0	-0.283097	0	0	0	0	0	0	0	-0.401507	0	0	0	0
2.997917	-73.154808	798.361389	3.165353	1.184868	0	-0.283041	0	0	0	0	0	0	0	-0.627575	0	0	0	0
2.998958	-77.62855500000001	825.147278	4.91005	1.183977	0	-0.282988	0	0	0	0	0	0	0	-0.854284	0	0	0	0
3	-82.265564	849.9968260000001	6.649838	1.183036	0	-0.282937	0	0	0	0	0	0	0	-1.080719	0	0	0	0
3.001042	-87.05001799999999	872.81073	8.362655999999999	1.182042	0	-0.282894	0	0	0	0	0	0	0	-1.30597	0	0	0	0
3.002083	-91.963623	893.530457	10.025986	1.180997	0	-0.282858	0	0	0	0	0	0	0	-1.529132	0	0	0	0
3.003125	-96.98597700000001	912.139099	11.617252	1.179898	0	-0.282832	0	0	0	0	0	0	0	-1.749314	0	0	0	0
3.004167	-102.095062	928.661682	13.114222	1.178745	0	-0.28282	0	0	0	0	0	0	0	-1.965644	0	0	0	0
3.005208	-107.267899	943.1640630000001	14.495427	1.177534	0	-0.282821	0	0	0	0	0	0	0	-2.177275	0	0	0	0
3.00625	-112.481186	955.750305	15.740591	1.176263	0	-0.28284	0	0	0	0	0	0	0	-2.383394	0	0	0	0
3.007292	-117.712059	966.55957	16.831047	1.174931	0	-0.282876	0	0	0	0	0	0	0	-2.58322	0	0	0	0
3.008333	-122.938766	975.7615970000001	17.750137	1.173533	0	-0.282933	0	0	0	0	0	0	0	-2.776016	0	0	0	0
3.009375	-128.141296	983.551453	18.483591	1.172067	0	-0.283011	0	0	0	0	0	0	0	-2.96109	0	0	0	0
3.010417	-133.301895	990.143921	19.019857	1.170529	0	-0.283111	0	0	0	0	0	0	0	-3.1378	0	0	0	0
3.011458	-138.405396	995.767151	19.350393	1.168917	0	-0.283234	0	0	0	0	0	0	0	-3.305557	0	0	0	0
3.0125	-143.439346	1000.656433	19.469896	1.167227	0	-0.283381	0	0	0	0	0	0	0	-3.463828	0	0	0	0
